 <svg  version="1.0" xmlns="http://www.w3.org/2000/svg"  width="137.000000pt" height="127.000000pt" viewBox="0 0 137.000000 127.000000"  preserveAspectRatio="xMidYMid meet">  <g transform="translate(0.000000,127.000000) scale(0.100000,-0.100000)" fill="#a855f7" stroke="none"> <path d="M463 1134 c-20 -20 -24 -31 -19 -57 3 -18 15 -38 26 -46 13 -9 20 -25 20 -47 0 -29 -5 -36 -42 -55 -56 -28 -140 -114 -170 -173 -18 -36 -36 -54 -69 -70 -58 -29 -89 -76 -89 -133 0 -68 46 -136 101 -148 21 -5 34 -19 55 -61 31 -61 120 -151 180 -182 128 -65 263 -68 390 -8 89 42 167 117 203 194 14 30 31 52 40 52 22 0 69 32 88 60 54 78 17 201 -70 229 -25 8 -39 23 -55 57 -30 61 -106 140 -169 176 -45 25 -53 34 -53 59 0 17 10 38 25 53 32 32 32 70 0 101 -30 30 -54 31 -89 4 -35 -28 -36 -80 -1 -107 14 -11 25 -28 25 -38 0 -18 -10 -19 -125 -19 -123 0 -125 0 -125 23 0 12 6 25 14 28 23 9 38 57 27 87 -20 51 -77 62 -118 21z m75 -46 c-2 -15 -11 -24 -25 -26 -19 -3 -23 1 -23 22 0 21 5 26 26 26 21 0 25 -4 22 -22z m297 -3 c0 -22 -31 -33 -47 -17 -17 17 -1 44 24 40 15 -2 23 -10 23 -23z m-66 -161 c115 -32 218 -128 262 -244 17 -46 20 -71 17 -150 -5 -113 -30 -172 -109 -255 -152 -161 -415 -156 -568 10 -71 78 -95 145 -96 265 0 86 3 101 32 162 83 176 276 265 462 212z m-540 -328 c-5 -30 -5 -74 0 -102 5 -27 8 -50 7 -51 -1 -2 -12 4 -24 13 -34 23 -55 71 -48 109 6 30 49 85 66 85 4 0 3 -24 -1 -54z m915 12 c25 -35 20 -92 -10 -127 -14 -17 -29 -31 -32 -31 -4 0 -7 45 -7 99 0 90 1 98 17 90 9 -5 24 -19 32 -31z"/> <path d="M446 795 c-109 -39 -151 -169 -83 -259 47 -61 70 -66 305 -66 201 0 210 1 243 23 73 49 102 144 64 216 -20 39 -69 78 -113 91 -56 15 -369 12 -416 -5z m445 -58 c60 -40 76 -105 39 -164 -35 -57 -58 -63 -265 -63 -134 0 -195 4 -218 14 -89 37 -98 165 -15 216 30 18 50 20 229 20 188 0 198 -1 230 -23z"/> <path d="M697 683 c-67 -114 -77 -135 -71 -145 7 -10 31 25 92 134 43 75 23 85 -21 11z"/> <path d="M466 685 c-38 -20 -55 -44 -56 -77 0 -21 5 -28 20 -28 13 0 20 7 20 18 0 27 34 54 62 50 14 -2 29 -15 38 -35 18 -40 50 -45 50 -8 0 30 -46 82 -80 90 -14 3 -38 -2 -54 -10z"/> <path d="M794 693 c-51 -10 -96 -108 -49 -108 12 0 21 9 25 24 12 53 80 54 98 1 11 -29 35 -40 47 -20 13 21 -24 81 -59 95 -20 8 -37 14 -38 14 -2 -1 -13 -4 -24 -6z"/> <path d="M565 400 c-9 -15 22 -77 45 -90 61 -33 138 3 143 66 2 23 -2 29 -18 29 -12 0 -21 -9 -25 -24 -12 -54 -86 -54 -97 -1 -5 30 -34 42 -48 20z"/> </g> </svg> 