<svg width="39" height="40" viewBox="0 0 39 40" fill="none" xmlns="http://www.w3.org/2000/svg">
<path fill-rule="evenodd" clip-rule="evenodd" d="M37.7311 13.4313C37.4029 12.352 36.9738 11.3167 36.4549 10.3363L24.76 21.4057L25.505 23.6406L15.0753 25.1306L15.8203 23.6406H13.5853L15.0753 13.9559H18.0552L29.0515 2.95959C28.0533 2.43582 26.9986 2.00505 25.899 1.67877L14.0734 12.9412C14.015 12.9969 13.9762 13.07 13.9629 13.1497L11.728 26.5593C11.7083 26.6774 11.7466 26.7978 11.8309 26.8828C11.9152 26.9678 12.0352 27.0071 12.1535 26.9885L26.3081 24.7535C26.3858 24.7412 26.4577 24.7046 26.5134 24.649L37.7311 13.4313ZM30.4688 3.78987L18.8128 15.4459V19.9157L23.2827 20.6607L35.6547 8.97603C34.3086 6.90577 32.539 5.13614 30.4688 3.78987Z" fill="url(#paint0_linear_23_46)"/>
<path fill-rule="evenodd" clip-rule="evenodd" d="M25.9664 1.67947C23.9442 0.963455 21.7676 0.573792 19.5 0.573792C8.80255 0.573792 0.130554 9.24579 0.130554 19.9432C0.130554 30.6407 8.80255 39.3127 19.5 39.3127C30.1974 39.3127 38.8694 30.6407 38.8694 19.9432C38.8694 17.6538 38.4723 15.4572 37.743 13.4185L36.3493 14.8122C36.843 16.4356 37.1086 18.1584 37.1086 19.9432C37.1086 29.6682 29.225 37.5518 19.5 37.5518C9.77505 37.5518 1.89141 29.6682 1.89141 19.9432C1.89141 10.2183 9.77505 2.33465 19.5 2.33465C21.2432 2.33465 22.9271 2.58794 24.5172 3.05973L25.9664 1.67947Z" fill="url(#paint1_linear_23_46)"/>
<defs>
<linearGradient id="paint0_linear_23_46" x1="11.7229" y1="29.5847" x2="46.4721" y2="-4.00933" gradientUnits="userSpaceOnUse">
<stop stop-color="#5EFCF1"/>
<stop offset="1" stop-color="#736EFE"/>
</linearGradient>
<linearGradient id="paint1_linear_23_46" x1="0.130554" y1="0.573792" x2="38.8694" y2="39.3127" gradientUnits="userSpaceOnUse">
<stop stop-color="#5EFCE8"/>
<stop offset="1" stop-color="#736EFE"/>
</linearGradient>
</defs>
</svg>
