<svg version="1.2" xmlns="http://www.w3.org/2000/svg" width="400" height="400">
<style>.a,.b{fill:none;stroke:#fff;stroke-miterlimit:10;stroke-width:9}.b{stroke-width:7}</style>
<path fill-rule="evenodd" class="a" d="M174 155s33.9 6.1 57-22 34.3-63.4 75-77c0 0 5 15.6-3 26 0 0-4.6 5 5 3s24.3 6.7 25 22c0 0-1.8 5.6 9 8l18 7s7.7-.7 1 11c0 0-12.8 20.7-32 18 0 0-20.2-1.7-22 17 0 0-4.4 77.4-49 108 0 0-3.8-2.3-3 15v44s23.7 7.3 11 23h-27s-12.9-5.3-14-21c-.8-11.1-30.5-104.3-25-85 5.5 19.3-9 16-9 16l-47-5s-6.2-.1-10 13-24 21-24 21l-11 38s17.7 7 15 14c0 0-.5 8.9-5 10-4.5 1.1-30 0-30 0s-14.6-4.3-13-19c1.6-14.7 0-125 0-125s.8-37.3 28-44c0 0-26.5-44.2 15.6-57.2 0 0 47.9-14.6 62.1 36.3 0 0 9.8 38.3-19.7 55.9 0 0-19.1-10.2-14-37 0 0 5.1-24.2-13-24 0 0-13.1 1.6-12 14l.9 2.1 22.5-.6"/>
<path fill-rule="evenodd" class="a" d="M312 114c-2.2 0-4-1.6-4-3.5s1.8-3.5 4-3.5 4 1.6 4 3.5-1.8 3.5-4 3.5z"/>
<path fill-rule="evenodd" class="b" d="M255.5 172c-1.4 0-2.5-1.3-2.5-3s1.1-3 2.5-3 2.5 1.3 2.5 3-1.1 3-2.5 3zM271.5 181c-.8 0-1.5-.7-1.5-1.5s.7-1.5 1.5-1.5 1.5.7 1.5 1.5-.7 1.5-1.5 1.5zM283.5 195c-1.4 0-2.5-.9-2.5-2s1.1-2 2.5-2 2.5.9 2.5 2-1.1 2-2.5 2zM131.5 222c-1.9 0-3.5-1.6-3.5-3.5s1.6-3.5 3.5-3.5 3.5 1.6 3.5 3.5-1.6 3.5-3.5 3.5zM141 237c-1.1 0-2-1.3-2-3s.9-3 2-3 2 1.3 2 3-.9 3-2 3zM141.5 253c-.8 0-1.5-.9-1.5-2s.7-2 1.5-2 1.5.9 1.5 2-.7 2-1.5 2zM235.4 174c-1.3 0-2.4-1.3-2.4-3s1.1-3 2.4-3c1.3 0 2.4 1.3 2.4 3s-1.1 3-2.4 3z"/>
<path fill-rule="evenodd" class="a" d="M312 114c-2.2 0-4-1.6-4-3.5s1.8-3.5 4-3.5 4 1.6 4 3.5-1.8 3.5-4 3.5z"/>
<path fill-rule="evenodd" class="b" d="M255.5 172c-1.4 0-2.5-1.3-2.5-3s1.1-3 2.5-3 2.5 1.3 2.5 3-1.1 3-2.5 3zM271.5 181c-.8 0-1.5-.7-1.5-1.5s.7-1.5 1.5-1.5 1.5.7 1.5 1.5-.7 1.5-1.5 1.5zM283.5 195c-1.4 0-2.5-.9-2.5-2s1.1-2 2.5-2 2.5.9 2.5 2-1.1 2-2.5 2zM131.5 222c-1.9 0-3.5-1.6-3.5-3.5s1.6-3.5 3.5-3.5 3.5 1.6 3.5 3.5-1.6 3.5-3.5 3.5zM141 237c-1.1 0-2-1.3-2-3s.9-3 2-3 2 1.3 2 3-.9 3-2 3zM141.5 253c-.8 0-1.5-.9-1.5-2s.7-2 1.5-2 1.5.9 1.5 2-.7 2-1.5 2zM235.4 174c-1.3 0-2.4-1.3-2.4-3s1.1-3 2.4-3c1.3 0 2.4 1.3 2.4 3s-1.1 3-2.4 3z"/>
</svg>